<svg width="35" height="45" viewBox="0 0 35 45" fill="none" xmlns="http://www.w3.org/2000/svg">
<path d="M34.1941 0.340912C34.1345 0.340912 34.0739 0.340912 34.0106 0.340912C33.9473 0.340912 33.8904 0.340912 33.8335 0.340912H1.13018C1.07328 0.340912 1.01455 0.340912 0.953067 0.340912C0.891583 0.340912 0.828263 0.340912 0.769531 0.340912C1.0173 0.82712 1.19075 1.23661 1.29903 1.51021C2.08915 3.49941 2.25892 5.20022 2.25892 6.01272V7.05723V29.8461V43.6189C2.25892 44.6117 3.52532 45.023 4.09428 44.2124C7.30065 39.6341 12.2102 35.5845 17.3814 35.5096C22.7121 35.432 27.6309 39.5 30.8767 44.1865C31.4411 45.0018 32.7121 44.5904 32.7121 43.5958V7.05723C32.7121 6.70845 32.7121 6.36027 32.7121 6.01272C32.7121 5.20022 32.88 3.49941 33.6711 1.51021C33.7766 1.23661 33.9491 0.82712 34.1941 0.340912Z" fill="url(#paint0_linear_472_346)"/>
<defs>
<linearGradient id="paint0_linear_472_346" x1="17.474" y1="2.13877" x2="17.4708" y2="45" gradientUnits="userSpaceOnUse">
<stop offset="0.19" stop-color="#69B21B"/>
<stop offset="1" stop-color="#1D664A"/>
</linearGradient>
</defs>
</svg>
