<svg xmlns="http://www.w3.org/2000/svg" width="120" height="120" viewBox="0 0 120 120">
  <g id="join-us-spinner" transform="translate(-30 -30)">
    <g id="Group_13" data-name="Group 13">
      <circle id="Ellipse_2" data-name="Ellipse 2" cx="60" cy="60" r="60" transform="translate(30 30)" fill="#d9fd00"/>
    </g>
    <path id="Path_6" data-name="Path 6" d="M71.113,49.095l.519-.037a1.671,1.671,0,0,0,1.632-1.982L72.9,42l-.668.048.366,5.077a1.111,1.111,0,0,1-1.046,1.349l-.479.035Zm6.155-.333a2.745,2.745,0,1,0-2.9-2.538A2.64,2.64,0,0,0,77.268,48.762Zm-.033-.6a2.148,2.148,0,1,1,1.871-2.28A2.015,2.015,0,0,1,77.235,48.162Zm3.772-6.1a.568.568,0,0,0,.548-.611.59.59,0,0,0-1.177.085A.568.568,0,0,0,81.007,42.065Zm.124,6.308.658-.048-.379-5.256-.658.047Zm4.289-5.7a2.15,2.15,0,0,0-1.8,1.123l-.063-.878-.628.045.379,5.256.658-.047-.237-3.292a1.614,1.614,0,0,1,1.589-1.6,1.529,1.529,0,0,1,1.768,1.577l.221,3.072.668-.048L87.741,44.7A2.008,2.008,0,0,0,85.419,42.67Zm10.3-2.316.316,4.389a1.895,1.895,0,1,1-3.77.272l-.316-4.389-.668.048.317,4.4A2.562,2.562,0,1,0,96.7,44.7l-.317-4.4Zm4.239,6.773c1.186-.086,1.935-.691,1.865-1.658-.139-1.925-3.251-1.009-3.349-2.375-.038-.529.358-.878,1.1-.931a1.2,1.2,0,0,1,1.292.679l.543-.26a1.716,1.716,0,0,0-1.872-.928c-1.077.078-1.767.659-1.7,1.527.13,1.805,3.246.939,3.35,2.385.044.608-.45.985-1.238,1.042a1.449,1.449,0,0,1-1.614-.826l-.553.26A2,2,0,0,0,99.956,47.127Z" fill="#212529"/>
    <path id="Path_7" data-name="Path 7" d="M87.776,136.7l-.483-.193a1.67,1.67,0,0,0-2.333,1.073L83.078,142.3l.623.248,1.883-4.729a1.111,1.111,0,0,1,1.529-.758l.446.178Zm-5.685-2.383a2.745,2.745,0,1,0,1.5,3.549A2.641,2.641,0,0,0,82.091,134.313Zm-.231.554a2.148,2.148,0,1,1-2.678,1.237A2.016,2.016,0,0,1,81.86,134.867Zm-6.052,3.844a.569.569,0,0,0-.759.311.59.59,0,0,0,1.1.437A.568.568,0,0,0,75.808,138.711Zm2.637-5.731-.613-.244-1.95,4.9.613.244ZM72.1,136.244a2.151,2.151,0,0,0,2.113-.224l-.326.818.585.233,1.95-4.9-.613-.244L74.588,135a1.613,1.613,0,0,1-2.127.746,1.529,1.529,0,0,1-.9-2.19l1.139-2.861-.622-.248-1.18,2.964A2.007,2.007,0,0,0,72.1,136.244Zm-10.277-2.4,1.628-4.088a1.895,1.895,0,1,1,3.512,1.4l-1.628,4.088.622.248,1.632-4.1a2.562,2.562,0,1,0-4.757-1.894l-1.631,4.1Zm-.864-7.943c-1.106-.441-2.043-.222-2.4.679-.714,1.793,2.486,2.325,1.979,3.6-.2.492-.7.634-1.392.36a1.2,1.2,0,0,1-.867-1.174l-.6,0a1.715,1.715,0,0,0,1.28,1.651c1,.4,1.878.177,2.2-.631.67-1.682-2.512-2.26-1.976-3.607.226-.567.835-.69,1.569-.4a1.448,1.448,0,0,1,1.092,1.447l.611.006A2,2,0,0,0,60.959,125.9Z" fill="#212529"/>
    <path id="Path_8" data-name="Path 8" d="M125.153,120.657l-.45.261a1.671,1.671,0,0,0-.6,2.5l2.556,4.4.579-.336-2.555-4.4a1.112,1.112,0,0,1,.348-1.671l.415-.241Zm-5.385,3a2.745,2.745,0,1,0,3.719,1.009A2.64,2.64,0,0,0,119.768,123.656Zm.292.524a2.148,2.148,0,1,1-.681,2.87A2.015,2.015,0,0,1,120.06,124.18Zm-.716,7.133a.57.57,0,0,0-.224.79.59.59,0,0,0,1.021-.593A.57.57,0,0,0,119.344,131.313Zm-2.877-5.614-.571.332,2.646,4.557.571-.331Zm-1.353,7.006a2.151,2.151,0,0,0,1.129-1.8l.441.761.545-.316-2.645-4.558-.571.332,1.656,2.854a1.612,1.612,0,0,1-.727,2.133,1.528,1.528,0,0,1-2.28-.642l-1.547-2.663-.579.336,1.6,2.759A2.007,2.007,0,0,0,115.114,132.705Zm-8.238,6.6-2.209-3.8a1.895,1.895,0,1,1,3.269-1.9l2.209,3.8.579-.336-2.214-3.814a2.561,2.561,0,1,0-4.428,2.57l2.214,3.814Zm-6.781-4.228c-1.029.6-1.436,1.47-.949,2.309.969,1.669,3.364-.519,4.052.666.266.458.063.946-.577,1.317a1.2,1.2,0,0,1-1.459-.043l-.373.471a1.714,1.714,0,0,0,2.089.013c.934-.542,1.3-1.367.862-2.119-.909-1.565-3.329.579-4.057-.675-.306-.527-.027-1.082.656-1.479a1.449,1.449,0,0,1,1.813.035l.382-.476A2,2,0,0,0,100.1,135.075Z" fill="#212529"/>
    <path id="Path_9" data-name="Path 9" d="M45.16,79.408l.295-.428a1.671,1.671,0,0,0-.529-2.512l-4.193-2.885-.38.552,4.193,2.885a1.111,1.111,0,0,1,.4,1.659l-.272.4Zm3.584-5.015a2.745,2.745,0,1,0-3.793.68A2.64,2.64,0,0,0,48.744,74.393Zm-.489-.348a2.148,2.148,0,1,1-.612-2.885A2.015,2.015,0,0,1,48.255,74.044Zm-2.406-6.753a.568.568,0,0,0-.135-.809.59.59,0,0,0-.669.972A.568.568,0,0,0,45.849,67.291Zm5,3.843.374-.544L46.885,67.6l-.374.544Zm-1.775-6.911a2.15,2.15,0,0,0-.25,2.11l-.725-.5-.357.519,4.342,2.987.374-.544-2.719-1.87a1.614,1.614,0,0,1-.256-2.24,1.529,1.529,0,0,1,2.336-.4l2.537,1.746.38-.552-2.628-1.808A2.008,2.008,0,0,0,49.077,64.222ZM53.7,54.734l3.625,2.494a1.895,1.895,0,1,1-2.143,3.114l-3.625-2.494-.38.552,3.633,2.5a2.562,2.562,0,1,0,2.9-4.218l-3.633-2.5Zm7.937.919c.674-.98.669-1.943-.13-2.493-1.59-1.094-2.818,1.909-3.947,1.132-.437-.3-.462-.828-.043-1.437a1.2,1.2,0,0,1,1.337-.585l.136-.586a1.715,1.715,0,0,0-1.894.882c-.612.89-.589,1.792.127,2.285,1.491,1.026,2.761-1.948,3.955-1.127.5.346.488.967.04,1.618a1.449,1.449,0,0,1-1.653.744l-.142.594A2,2,0,0,0,61.637,55.653Z" fill="#212529"/>
    <path id="Path_10" data-name="Path 10" d="M111.361,50.452l.355.38a1.67,1.67,0,0,0,2.567.022L118,47.376l-.457-.489-3.717,3.477a1.112,1.112,0,0,1-1.707.035l-.328-.351Zm4.13,4.576a2.745,2.745,0,1,0,.149-3.851A2.64,2.64,0,0,0,115.491,55.028Zm.445-.4a2.148,2.148,0,1,1,2.949.021A2.014,2.014,0,0,1,115.936,54.625Zm7.112-.9a.568.568,0,0,0,.819.042.59.59,0,0,0-.806-.862A.568.568,0,0,0,123.048,53.723Zm-4.826,4.063.451.482,3.848-3.6-.451-.482Zm7.131-.252a2.149,2.149,0,0,0-2.007-.7l.642-.6-.43-.46-3.849,3.6.451.482,2.41-2.254a1.613,1.613,0,0,1,2.242.23A1.529,1.529,0,0,1,124.7,60.2l-2.249,2.1.458.489,2.329-2.179A2.007,2.007,0,0,0,125.353,57.534Zm8.276,6.549-3.213,3.006a1.895,1.895,0,1,1-2.582-2.76l3.213-3.006-.458-.489-3.22,3.013a2.562,2.562,0,1,0,3.5,3.739l3.22-3.013Zm-2.6,7.555c.813.869,1.754,1.07,2.462.408,1.41-1.318-1.26-3.162-.259-4.1.387-.362.908-.274,1.413.266a1.2,1.2,0,0,1,.285,1.432l.543.259a1.716,1.716,0,0,0-.455-2.039c-.738-.789-1.624-.96-2.259-.365-1.322,1.237,1.311,3.114.252,4.1-.446.417-1.049.269-1.589-.308a1.448,1.448,0,0,1-.372-1.774l-.55-.266A2,2,0,0,0,131.03,71.639Z" fill="#212529"/>
    <path id="Path_11" data-name="Path 11" d="M135.187,81.846l-.075.514a1.67,1.67,0,0,0,1.583,2.022l5.036.74.1-.663-5.036-.74a1.111,1.111,0,0,1-1.091-1.312l.07-.475Zm-1,6.082a2.745,2.745,0,1,0,3.1-2.283A2.64,2.64,0,0,0,134.183,87.928Zm.592.1a2.148,2.148,0,1,1,1.822,2.32A2.015,2.015,0,0,1,134.775,88.025Zm5.138,5a.568.568,0,0,0,.478.667.59.59,0,0,0,.171-1.168A.568.568,0,0,0,139.913,93.025Zm-6.186-1.242-.1.653,5.215.766.1-.653Zm4.642,5.42a2.152,2.152,0,0,0-.706-2l.87.128.092-.623-5.214-.766-.1.653,3.265.48a1.614,1.614,0,0,1,1.217,1.9,1.529,1.529,0,0,1-1.922,1.385l-3.047-.448-.1.663,3.156.464A2.008,2.008,0,0,0,138.369,97.2Zm.036,10.554-4.353-.64a1.894,1.894,0,1,1,.549-3.739l4.354.639.1-.663-4.363-.641a2.562,2.562,0,1,0-.744,5.066l4.363.641Zm-7.529,2.676c-.173,1.177.257,2.039,1.216,2.18,1.91.28,1.688-2.957,3.043-2.757.525.077.78.539.673,1.271a1.2,1.2,0,0,1-.942,1.115l.136.586a1.714,1.714,0,0,0,1.31-1.627c.157-1.069-.261-1.868-1.122-1.994-1.79-.263-1.618,2.966-3.053,2.755-.6-.089-.864-.652-.749-1.434a1.449,1.449,0,0,1,1.155-1.4l-.135-.6A2,2,0,0,0,130.876,110.433Z" fill="#212529"/>
    <path id="Path_12" data-name="Path 12" d="M53.183,118.969l-.152-.5a1.671,1.671,0,0,0-2.3-1.15l-4.868,1.487.2.641,4.868-1.487a1.111,1.111,0,0,1,1.548.719l.14.459Zm-1.7-5.926a2.745,2.745,0,1,0-1.829,3.392A2.641,2.641,0,0,0,51.487,113.043Zm-.577.165a2.148,2.148,0,1,1-2.64-1.316A2.015,2.015,0,0,1,50.91,113.208Zm-6.784-2.319a.568.568,0,0,0-.717-.4.59.59,0,0,0,.345,1.129A.569.569,0,0,0,44.126,110.889Zm6.122-1.525-.193-.631-5.04,1.539.193.632Zm-6.515-2.911a2.148,2.148,0,0,0,1.5,1.508l-.842.257.184.6,5.04-1.54-.193-.631-3.156.964a1.614,1.614,0,0,1-1.912-1.193,1.53,1.53,0,0,1,1.144-2.075l2.946-.9-.2-.641-3.051.932A2.009,2.009,0,0,0,43.733,106.453ZM39.182,96.93l4.208-1.286a1.895,1.895,0,1,1,1.1,3.615l-4.208,1.286.2.641L44.7,99.9A2.561,2.561,0,1,0,43.2,95l-4.217,1.288Zm5.659-5.641c-.348-1.138-1.1-1.733-2.032-1.449-1.846.564-.26,3.394-1.57,3.794-.507.155-.936-.153-1.152-.861a1.2,1.2,0,0,1,.374-1.411l-.374-.471a1.715,1.715,0,0,0-.488,2.031c.316,1.033,1.036,1.576,1.868,1.322,1.731-.529.193-3.373,1.579-3.8.583-.178,1.061.22,1.291.975a1.449,1.449,0,0,1-.446,1.757l.377.481A2,2,0,0,0,44.841,91.289Z" fill="#212529"/>
  </g>
</svg>
