<svg width="42" height="42" viewBox="0 0 42 42" fill="none" xmlns="http://www.w3.org/2000/svg">
<circle r="20.5" transform="matrix(-1 0 0 1 21 21)" stroke="white"/>
<path d="M24.3811 16.189C24.1289 15.9354 23.7219 15.9373 23.472 16.1931C23.2221 16.4489 23.2239 16.8618 23.476 17.1154L24.9872 18.6348C25.6004 19.2514 26.0211 19.6758 26.3058 20.0354C26.3983 20.1523 26.4705 20.2551 26.5265 20.3478L13.6429 20.3478C13.2878 20.3478 13 20.6398 13 21C13 21.3602 13.2878 21.6522 13.6429 21.6522L26.5265 21.6522C26.4705 21.7449 26.3983 21.8477 26.3058 21.9646C26.0211 22.3242 25.6004 22.7486 24.9872 23.3652L23.476 24.8846C23.2239 25.1382 23.2221 25.5511 23.472 25.8069C23.7219 26.0627 24.1289 26.0646 24.3811 25.811L25.9195 24.2643C26.4989 23.6817 26.9724 23.2056 27.3082 22.7813C27.6575 22.3402 27.9103 21.8924 27.9778 21.3549C27.9926 21.2371 28 21.1185 28 21C28 20.8815 27.9926 20.7629 27.9778 20.6451C27.9103 20.1076 27.6575 19.6598 27.3082 19.2187C26.9724 18.7944 26.4989 18.3183 25.9194 17.7357L24.3811 16.189Z" fill="#FAFAFA"/>
</svg>
