<svg xmlns="http://www.w3.org/2000/svg" viewBox="0 0 263.31 216.86"><defs><style>.cls-1{opacity:0;}.cls-2{fill:#d9fd00;}.cls-3{opacity:0.01;}.cls-4{opacity:0.02;}.cls-5{opacity:0.03;}.cls-6{opacity:0.04;}.cls-7{opacity:0.05;}.cls-8{opacity:0.06;}.cls-9{opacity:0.07;}.cls-10{opacity:0.08;}.cls-11{opacity:0.09;}.cls-12{opacity:0.1;}.cls-13{opacity:0.15;}</style></defs><g id="Layer_2" data-name="Layer 2"><g id="Layer_1-2" data-name="Layer 1"><g id="Layer_2-2" data-name="Layer 2"><g id="Layer_1-2-2" data-name="Layer 1-2"><g class="cls-1"><path class="cls-2" d="M221.62,206.45H41.7a21.88,21.88,0,0,1-18.48-33.59L113.18,31a21.88,21.88,0,0,1,37,0l90,141.87a21.88,21.88,0,0,1-18.47,33.59ZM81.47,162.7H181.84L131.66,83.56Z"/></g><g class="cls-1"><path class="cls-2" d="M221.62,205.82H41.7a21.24,21.24,0,0,1-18-32.63l90-141.86a21.26,21.26,0,0,1,35.89,0l90,141.86a21.25,21.25,0,0,1-17.94,32.63ZM80.33,163.32H183L131.66,82.39Z"/></g><g class="cls-1"><path class="cls-2" d="M221.62,205.2H41.7a20.61,20.61,0,0,1-17.42-31.67l90-141.87a20.63,20.63,0,0,1,34.84,0l90,141.87a20.63,20.63,0,0,1-17.5,31.67ZM79.2,164H184.12L131.66,81.22Z"/></g><g class="cls-1"><path class="cls-2" d="M221.62,204.57H41.7a20,20,0,0,1-16.89-30.71L114.77,32a20,20,0,0,1,33.78,0l90,141.86a20,20,0,0,1-16.89,30.71ZM78,164.57H185.25L131.66,80.06Z"/></g><g class="cls-1"><path class="cls-2" d="M221.62,204H41.7a19.38,19.38,0,0,1-16.37-29.8l90-141.87a19.37,19.37,0,0,1,32.72,0L238,174.2a19.38,19.38,0,0,1-16.4,29.8ZM76.93,165.2H186.39L131.66,78.89Z"/></g><g class="cls-1"><path class="cls-2" d="M221.62,203.32H41.7a18.74,18.74,0,0,1-15.84-28.79l90-141.86a18.76,18.76,0,0,1,31.67,0l90,141.86a18.74,18.74,0,0,1-15.83,28.79ZM75.79,165.82H187.53l-55.87-88.1Z"/></g><g class="cls-1"><path class="cls-2" d="M221.62,202.7H41.7a18.12,18.12,0,0,1-15.31-27.83L116.35,33A18.13,18.13,0,0,1,147,33l90,141.87a18.12,18.12,0,0,1-15.3,27.83Zm-147-36.25h114l-57-89.9Z"/></g><g class="cls-1"><path class="cls-2" d="M221.62,202.07H41.7A17.49,17.49,0,0,1,26.92,175.2l90-141.86a17.5,17.5,0,0,1,29.56,0l90,141.86a17.5,17.5,0,0,1-14.78,26.87Zm-148.1-35H189.8L131.66,75.39Z"/></g><g class="cls-3"><path class="cls-2" d="M221.62,201.45H41.7a16.87,16.87,0,0,1-14.25-25.91l90-141.87a16.87,16.87,0,0,1,28.5,0l90,141.87a16.89,16.89,0,0,1-14.25,25.91ZM72.38,167.7H190.93L131.66,74.22Z"/></g><g class="cls-3"><path class="cls-2" d="M221.62,200.82H41.7A16.24,16.24,0,0,1,28,175.87L117.93,34a16.25,16.25,0,0,1,27.45,0l90,141.86a16.26,16.26,0,0,1-13.72,24.95ZM71.24,168.32H192.07L131.66,73.05Z"/></g><g class="cls-3"><path class="cls-2" d="M221.62,200.2H41.7a15.63,15.63,0,0,1-13.2-24l90-141.87a15.62,15.62,0,0,1,26.39,0l90,141.87a15.63,15.63,0,0,1-13.19,24ZM70.11,169h123.1L131.66,71.89Z"/></g><g class="cls-3"><path class="cls-2" d="M221.62,199.57H41.7a15,15,0,0,1-12.67-23L119,34.68a15,15,0,0,1,25.34,0l90,141.86a15,15,0,0,1-12.67,23ZM69,169.57H194.34L131.66,70.72Z"/></g><g class="cls-3"><path class="cls-2" d="M221.62,199H41.7a14.37,14.37,0,0,1-12.14-22.08L119.52,35a14.38,14.38,0,0,1,24.28,0l90,141.86A14.38,14.38,0,0,1,221.62,199ZM67.83,170.2H195.48L131.66,69.55Z"/></g><g class="cls-3"><path class="cls-2" d="M221.62,198.32H41.7a13.74,13.74,0,0,1-11.62-21.11L120,35.35a13.75,13.75,0,0,1,23.22,0l90,141.86a13.74,13.74,0,0,1-11.61,21.11ZM66.7,170.82H196.62l-65-102.44Z"/></g><g class="cls-4"><path class="cls-2" d="M221.62,197.7H41.7a13.12,13.12,0,0,1-11.09-20.16l90-141.86a13.12,13.12,0,0,1,22.17,0l90,141.86a13.13,13.13,0,0,1-11.16,20.16ZM65.56,171.45H197.75L131.66,67.22Z"/></g><g class="cls-4"><path class="cls-2" d="M221.62,197.07H41.7a12.49,12.49,0,0,1-10.56-19.19L121.1,36a12.49,12.49,0,0,1,21.11,0l90,141.86a12.5,12.5,0,0,1-10.55,19.19Zm-157.19-25H198.89l-67.23-106Z"/></g><g class="cls-4"><path class="cls-2" d="M221.62,196.45H41.7a11.86,11.86,0,0,1-10-18.24l90-141.86a11.88,11.88,0,0,1,20.06,0l90,141.86a11.89,11.89,0,0,1-10,18.24ZM63.29,172.7H200L131.66,64.88Z"/></g><g class="cls-4"><path class="cls-2" d="M221.62,195.82H41.7a11.25,11.25,0,0,1-9.5-17.27l90-141.87a11.26,11.26,0,0,1,19,0l90,141.87a11.26,11.26,0,0,1-9.5,17.27ZM62.15,173.32h139l-69.5-109.6Z"/></g><g class="cls-5"><path class="cls-2" d="M221.62,195.2H41.7a10.63,10.63,0,0,1-9-16.32L122.68,37a10.63,10.63,0,0,1,18,0l90,141.86a10.63,10.63,0,0,1-9,16.32ZM61,174H202.3L131.66,62.55Z"/></g><g class="cls-5"><path class="cls-2" d="M221.62,194.57H41.7a10,10,0,0,1-8.45-15.35l90-141.87a10,10,0,0,1,13.8-3.09,10.12,10.12,0,0,1,3.09,3.09l90,141.87a10,10,0,0,1-8.44,15.35Zm-161.74-20H203.44L131.66,61.38Z"/></g><g class="cls-5"><path class="cls-2" d="M221.62,194H41.7a9.38,9.38,0,0,1-7.92-14.4l90-141.86a9.38,9.38,0,0,1,15.84,0l90,141.86a9.39,9.39,0,0,1-8,14.4ZM58.74,175.2H204.57l-72.91-115Z"/></g><g class="cls-6"><path class="cls-2" d="M221.62,193.32H41.7a8.73,8.73,0,0,1-7.39-13.43L124.27,38a8.76,8.76,0,0,1,12.1-2.65A8.93,8.93,0,0,1,139,38l90,141.87a8.76,8.76,0,0,1-7.39,13.43Zm-164-17.5h148.1L131.66,59.05Z"/></g><g class="cls-6"><path class="cls-2" d="M221.62,192.7H41.7a8.12,8.12,0,0,1-6.86-12.48l90-141.86a8.12,8.12,0,0,1,13.72,0l90,141.86a8.13,8.13,0,0,1-6.86,12.48ZM56.47,176.45H206.84L131.66,57.88Z"/></g><g class="cls-7"><path class="cls-2" d="M221.62,192.07H41.7a7.49,7.49,0,0,1-6.34-11.51l90-141.87a7.52,7.52,0,0,1,12.67,0l90,141.87a7.49,7.49,0,0,1-6.33,11.51Zm-166.29-15H208L131.66,56.71Z"/></g><g class="cls-7"><path class="cls-2" d="M221.62,191.45H41.7a6.86,6.86,0,0,1-5.81-10.56L125.85,39a6.88,6.88,0,0,1,11.61,0l90,141.86a6.88,6.88,0,0,1-5.8,10.56ZM54.2,177.7H209.12L131.66,55.55Z"/></g><g class="cls-8"><path class="cls-2" d="M221.62,190.82H41.7a6.25,6.25,0,0,1-5.28-9.59l90-141.87a6.26,6.26,0,0,1,8.64-1.92A6.39,6.39,0,0,1,137,39.36l90,141.87a6.26,6.26,0,0,1-5.28,9.59ZM53,178.32H210.25L131.66,54.38Z"/></g><g class="cls-9"><path class="cls-2" d="M221.62,190.2H41.7A5.62,5.62,0,0,1,37,181.56L127,39.7A5.62,5.62,0,0,1,134.7,38a5.84,5.84,0,0,1,1.75,1.75l90,141.86a5.63,5.63,0,0,1-4.75,8.64ZM51.92,179H211.39L131.66,53.21Z"/></g><g class="cls-10"><path class="cls-2" d="M221.62,189.57H41.7a5,5,0,0,1-4.23-7.67l90-141.9a5,5,0,0,1,6.89-1.55A4.91,4.91,0,0,1,135.88,40l90,141.87a5,5,0,0,1-4.22,7.67Zm-170.83-10H212.53L131.66,52.05Z"/></g><g class="cls-11"><path class="cls-2" d="M221.62,189H41.7a4.38,4.38,0,0,1-4.38-4.38,4.31,4.31,0,0,1,.68-2.34L128,40.42a4.36,4.36,0,0,1,6-1.36,4.44,4.44,0,0,1,1.37,1.36l90,141.86a4.39,4.39,0,0,1-3.77,6.72Zm-172-8.75h164l-82-129.32Z"/></g><g class="cls-12"><path class="cls-2" d="M221.62,188.32H41.7a3.75,3.75,0,0,1-3.76-3.75,3.69,3.69,0,0,1,.59-2l90-141.86a3.75,3.75,0,0,1,3.13-1.7h0a3.76,3.76,0,0,1,3.16,1.74l90,141.86a3.75,3.75,0,0,1-3.16,5.76Zm-173.1-7.5H214.8L131.66,49.71Z"/></g><g class="cls-13"><path class="cls-2" d="M221.62,187.7H41.7A3.12,3.12,0,0,1,39,182.9L129,41a3.11,3.11,0,0,1,4.3-1,3.27,3.27,0,0,1,1,1l90,141.86a3.13,3.13,0,0,1-2.64,4.8ZM47.38,181.45H215.94L131.66,48.54Z"/></g><path class="cls-2" d="M221.62,187.07H41.7a2.49,2.49,0,0,1-2.5-2.5,2.46,2.46,0,0,1,.39-1.34l90-141.86a2.49,2.49,0,0,1,2.11-1.16,2.51,2.51,0,0,1,2.11,1.16l90,141.86a2.51,2.51,0,0,1-2.11,3.84Zm-175.38-5H217.07L131.66,47.38Z"/><path class="cls-2" d="M221.62,186.36H41.7a1.78,1.78,0,0,1-1.57-.93,1.76,1.76,0,0,1,.06-1.81l90-141.87a1.78,1.78,0,0,1,2.47-.52,1.75,1.75,0,0,1,.53.52l90,141.87a1.8,1.8,0,0,1-.57,2.47,1.83,1.83,0,0,1-.94.27ZM44.94,182.79H218.37L131.66,46Z"/><path class="cls-2" d="M221.62,185.64H41.7a1.07,1.07,0,0,1-1.08-1.07,1.06,1.06,0,0,1,.17-.57l90-141.86a1.1,1.1,0,0,1,1.54-.26,1.33,1.33,0,0,1,.27.26L222.52,184a1.11,1.11,0,0,1,0,1.09A1.08,1.08,0,0,1,221.62,185.64Zm-178-2.14h176l-88-138.79Z"/><path class="cls-2" d="M221.62,184.93H41.7a.35.35,0,0,1-.32-.19.33.33,0,0,1,0-.36l90-141.86a.35.35,0,0,1,.49-.1.52.52,0,0,1,.11.1l90,141.86a.38.38,0,0,1,0,.36A.35.35,0,0,1,221.62,184.93Zm-179.27-.71H221L131.66,43.38Z"/><g class="cls-1"><path class="cls-2" d="M241.44,216.86H21.88A21.86,21.86,0,0,1,3.41,183.27L113.18,10.16A21.86,21.86,0,0,1,131.66,0h0a21.86,21.86,0,0,1,18.47,10.16L259.91,183.27a21.89,21.89,0,0,1-18.47,33.59ZM61.65,173.11h140l-70-110.39Z"/></g><g class="cls-1"><path class="cls-2" d="M241.44,216.24H21.88a21.24,21.24,0,0,1-18-32.63L113.71,10.49a21.27,21.27,0,0,1,18-9.87h0a21.27,21.27,0,0,1,17.94,9.87L259.38,183.61a21.25,21.25,0,0,1-17.94,32.63ZM60.52,173.74H202.8L131.66,61.56Z"/></g><g class="cls-1"><path class="cls-2" d="M241.44,215.61H21.88A20.62,20.62,0,0,1,4.46,183.94L114.24,10.83a20.63,20.63,0,0,1,34.84,0L258.85,183.94a20.62,20.62,0,0,1-17.41,31.67ZM59.38,174.36H203.93l-72.27-114Z"/></g><g class="cls-1"><path class="cls-2" d="M241.44,215H21.88A20,20,0,0,1,5,184.28L114.77,11.16a20,20,0,0,1,33.78,0L258.33,184.28A20,20,0,0,1,241.44,215ZM58.24,175H205.07L131.66,59.22Z"/></g><g class="cls-1"><path class="cls-2" d="M241.44,214.36H21.88A19.37,19.37,0,0,1,5.52,184.61L115.3,11.5a19.37,19.37,0,0,1,32.72,0L257.8,184.61a19.38,19.38,0,0,1-16.36,29.75ZM57.11,175.61h149.1L131.66,58.05Z"/></g><g class="cls-1"><path class="cls-2" d="M241.44,213.74H21.88A18.74,18.74,0,0,1,6,185L115.82,11.83a18.76,18.76,0,0,1,31.67,0L257.27,185a18.75,18.75,0,0,1-15.83,28.79ZM56,176.24H207.34L131.66,56.89Z"/></g><g class="cls-1"><path class="cls-2" d="M241.44,213.11H21.88A18.12,18.12,0,0,1,6.57,185.28L116.35,12.17a18.13,18.13,0,0,1,30.61,0L256.74,185.28a18.12,18.12,0,0,1-15.3,27.83ZM54.84,176.86H208.48L131.66,55.72Z"/></g><g class="cls-1"><path class="cls-2" d="M241.44,212.49H21.88A17.5,17.5,0,0,1,7.1,185.62L116.88,12.5a17.52,17.52,0,0,1,29.56,0L256.21,185.62a17.5,17.5,0,0,1-14.77,26.87Zm-187.74-35H209.62l-78-122.94Z"/></g><g class="cls-3"><path class="cls-2" d="M241.44,211.86H21.88A16.86,16.86,0,0,1,7.63,186L117.41,12.84a16.87,16.87,0,0,1,28.5,0L255.69,186a16.89,16.89,0,0,1-14.25,25.91ZM52.56,178.11H210.75L131.66,53.39Z"/></g><g class="cls-3"><path class="cls-2" d="M241.44,211.24H21.88a16.25,16.25,0,0,1-13.72-25L117.93,13.17a16.25,16.25,0,0,1,27.45,0L255.16,186.29a16.26,16.26,0,0,1-13.72,25Zm-190-32.5H211.89L131.66,52.22Z"/></g><g class="cls-3"><path class="cls-2" d="M241.44,210.61H21.88a15.63,15.63,0,0,1-13.2-24L118.46,13.51a15.62,15.62,0,0,1,26.39,0L254.63,186.62a15.63,15.63,0,0,1-13.19,24ZM50.29,179.36H213L131.66,51.05Z"/></g><g class="cls-3"><path class="cls-2" d="M241.44,210H21.88A15,15,0,0,1,9.21,187L119,13.84a15,15,0,0,1,25.34,0L254.1,187a15,15,0,0,1-12.66,23ZM49.15,180h165L131.66,49.88Z"/></g><g class="cls-3"><path class="cls-2" d="M241.44,209.36H21.88A14.37,14.37,0,0,1,9.74,187.29L119.52,14.18a14.38,14.38,0,0,1,24.28,0L253.58,187.29a14.38,14.38,0,0,1-12.14,22.07ZM48,180.61H215.3L131.66,48.72Z"/></g><g class="cls-3"><path class="cls-2" d="M241.44,208.74H21.88a13.73,13.73,0,0,1-11.61-21.11L120,14.51a13.75,13.75,0,0,1,23.22,0L253,187.63a13.76,13.76,0,0,1-11.61,21.11ZM46.88,181.24H216.43L131.66,47.55Z"/></g><g class="cls-4"><path class="cls-2" d="M241.44,208.11H21.88A13.12,13.12,0,0,1,10.8,188L120.57,14.85a13.12,13.12,0,0,1,22.17,0L252.52,188a13.12,13.12,0,0,1-11.08,20.15ZM45.74,181.86H217.57L131.66,46.38Z"/></g><g class="cls-4"><path class="cls-2" d="M241.44,207.49H21.88A12.49,12.49,0,0,1,11.32,188.3L121.1,15.18a12.49,12.49,0,0,1,17.25-3.86,12.69,12.69,0,0,1,3.86,3.86L252,188.3a12.5,12.5,0,0,1-10.55,19.19Zm-196.83-25h174.1L131.66,45.22Z"/></g><g class="cls-4"><path class="cls-2" d="M241.44,206.86H21.88a11.87,11.87,0,0,1-10-18.23L121.63,15.52a11.88,11.88,0,0,1,20.06,0L251.46,188.63A11.87,11.87,0,0,1,247.79,205a11.75,11.75,0,0,1-6.33,1.85Zm-198-23.75h176.4L131.66,44.05Z"/></g><g class="cls-4"><path class="cls-2" d="M241.44,206.24H21.88A11.25,11.25,0,0,1,12.38,189L122.16,15.85a11.25,11.25,0,0,1,19,0L250.94,189a11.26,11.26,0,0,1-9.5,17.27ZM42.33,183.74H221L131.66,42.88Z"/></g><g class="cls-5"><path class="cls-2" d="M241.44,205.61H21.88a10.61,10.61,0,0,1-9-16.31L122.68,16.19a10.63,10.63,0,0,1,18,0L250.41,189.3a10.62,10.62,0,0,1-9,16.31ZM41.2,184.36H222.12L131.66,41.72Z"/></g><g class="cls-5"><path class="cls-2" d="M241.44,205H21.88a10,10,0,0,1-8.45-15.36L123.21,16.52A10,10,0,0,1,137,13.43a10.12,10.12,0,0,1,3.09,3.09L249.88,189.63A10,10,0,0,1,241.44,205ZM40,185H223.25L131.66,40.55Z"/></g><g class="cls-5"><path class="cls-2" d="M241.44,204.36H21.88A9.37,9.37,0,0,1,14,190L123.74,16.85a9.39,9.39,0,0,1,15.84,0L249.35,190a9.38,9.38,0,0,1-7.91,14.39ZM38.93,185.61H224.39L131.66,39.38Z"/></g><g class="cls-6"><path class="cls-2" d="M241.44,203.74H21.88a8.74,8.74,0,0,1-7.39-13.44L124.27,17.19a8.75,8.75,0,0,1,14.78,0L248.83,190.3a8.76,8.76,0,0,1-7.39,13.44ZM37.79,186.24H225.53l-93.87-148Z"/></g><g class="cls-6"><path class="cls-2" d="M241.44,203.11H21.88A8.11,8.11,0,0,1,15,190.64L124.8,17.52a8.13,8.13,0,0,1,13.72,0L248.3,190.64a8.12,8.12,0,0,1-6.86,12.47ZM36.65,186.86h190l-95-149.81Z"/></g><g class="cls-7"><path class="cls-2" d="M241.44,202.49H21.88A7.5,7.5,0,0,1,15.55,191L125.32,17.86a7.52,7.52,0,0,1,12.67,0L247.77,191a7.51,7.51,0,0,1-6.33,11.52Zm-205.92-15H227.8L131.66,35.88Z"/></g><g class="cls-7"><path class="cls-2" d="M241.44,201.86H21.88a6.87,6.87,0,0,1-5.81-10.55L125.85,18.19a6.87,6.87,0,0,1,9.49-2.11,7,7,0,0,1,2.12,2.11L247.24,191.31a6.88,6.88,0,0,1-5.8,10.55ZM34.38,188.11H228.93L131.66,34.71Z"/></g><g class="cls-8"><path class="cls-2" d="M241.44,201.24H21.88a6.24,6.24,0,0,1-5.28-9.6L126.38,18.53A6.25,6.25,0,0,1,135,16.59a6.41,6.41,0,0,1,1.94,1.94L246.71,191.64a6.25,6.25,0,0,1-5.27,9.6Zm-208.2-12.5H230.07L131.66,33.55Z"/></g><g class="cls-9"><path class="cls-2" d="M241.44,200.61H21.88A5.61,5.61,0,0,1,17.13,192L126.91,18.86a5.63,5.63,0,0,1,7.77-1.73,5.71,5.71,0,0,1,1.73,1.73L246.19,192a5.63,5.63,0,0,1-1.77,7.76,5.54,5.54,0,0,1-3,.87ZM32.11,189.36h199.1l-99.55-157Z"/></g><g class="cls-10"><path class="cls-2" d="M241.44,200H21.88a5,5,0,0,1-4.22-7.68L127.43,19.2a5,5,0,0,1,6.89-1.55,4.91,4.91,0,0,1,1.56,1.55L245.66,192.31a5,5,0,0,1-4.22,7.68ZM31,190H232.34L131.66,31.21Z"/></g><g class="cls-11"><path class="cls-2" d="M241.44,199.36H21.88A4.39,4.39,0,0,1,17.5,195a4.45,4.45,0,0,1,.68-2.32L128,19.53a4.37,4.37,0,0,1,6-1.34,4.42,4.42,0,0,1,1.35,1.34L245.13,192.65a4.38,4.38,0,0,1-3.69,6.71ZM29.83,190.61H233.48L131.66,30Z"/></g><g class="cls-12"><path class="cls-2" d="M241.44,198.74H21.88A3.74,3.74,0,0,1,18.71,193L128.49,19.87a3.75,3.75,0,0,1,6.33,0L244.6,193a3.75,3.75,0,0,1-3.16,5.76ZM28.7,191.24H234.62l-103-162.36Z"/></g><g class="cls-13"><path class="cls-2" d="M241.44,198.11H21.88a3.11,3.11,0,0,1-2.64-4.79L129,20.2a3.12,3.12,0,0,1,4.32-1,3.25,3.25,0,0,1,1,1L244.07,193.32a3.13,3.13,0,0,1-1,4.31,3.17,3.17,0,0,1-1.66.48ZM27.56,191.86H235.75L131.66,27.71Z"/></g><path class="cls-2" d="M241.44,197.49H21.88a2.49,2.49,0,0,1-2.5-2.5,2.46,2.46,0,0,1,.39-1.34L129.55,20.54a2.44,2.44,0,0,1,2.11-1.16,2.51,2.51,0,0,1,2.11,1.16L243.55,193.65a2.51,2.51,0,0,1-2.11,3.84Zm-215-5H236.89l-105.23-166Z"/><path class="cls-2" d="M241.44,196.78H21.88A1.79,1.79,0,0,1,20.07,195a1.74,1.74,0,0,1,.3-1L130.15,20.92a1.78,1.78,0,0,1,2.47-.52,1.75,1.75,0,0,1,.53.52L242.94,194a1.79,1.79,0,0,1-.56,2.47,1.75,1.75,0,0,1-.94.28ZM25.13,193.2H238.19L131.66,25.2Z"/><path class="cls-2" d="M241.44,196.06H21.88a1.08,1.08,0,0,1-.94-.55,1.07,1.07,0,0,1,0-1.09L130.75,21.3a1.1,1.1,0,0,1,1.54-.26,1.33,1.33,0,0,1,.27.26L242.34,194.42a1.07,1.07,0,0,1,0,1.09A1,1,0,0,1,241.44,196.06ZM23.83,193.92H239.49l-107.83-170Z"/><path class="cls-2" d="M241.44,195.35H21.88a.32.32,0,0,1-.31-.19.33.33,0,0,1,0-.36L131.36,21.68a.37.37,0,0,1,.53-.07l.07.07L241.74,194.8a.38.38,0,0,1,0,.36A.36.36,0,0,1,241.44,195.35Zm-218.91-.72H240.79L131.66,22.54Z"/></g></g></g></g></svg>